<svg width="70" height="70" viewBox="0 0 70 70" fill="none" xmlns="http://www.w3.org/2000/svg">
<g filter="url(#filter0_d_1_306)">
<circle cx="34.8001" cy="21.9796" r="16.7999" fill="#FFFF00"/>
</g>
<path d="M34.8 5.17969C25.5215 5.17969 18 12.7012 18 21.9797C18 31.2582 25.5215 38.7797 34.8 38.7797C44.0785 38.7797 51.6 31.2582 51.6 21.9797C51.6 12.7012 44.0785 5.17969 34.8 5.17969ZM38.7795 16.7892H36.2543C35.955 16.7892 35.6225 17.1829 35.6225 17.7062V19.5297H38.7813L38.3035 22.1302H35.6225V29.9369H32.6423V22.1302H29.9385V19.5297H32.6423V18.0002C32.6423 15.8057 34.1648 14.0224 36.2543 14.0224H38.7795V16.7892Z" fill="#1A1A1A"/>
<defs>
<filter id="filter0_d_1_306" x="0.00012207" y="0.179688" width="69.5999" height="69.5999" filterUnits="userSpaceOnUse" color-interpolation-filters="sRGB">
<feFlood flood-opacity="0" result="BackgroundImageFix"/>
<feColorMatrix in="SourceAlpha" type="matrix" values="0 0 0 0 0 0 0 0 0 0 0 0 0 0 0 0 0 0 127 0" result="hardAlpha"/>
<feOffset dy="13"/>
<feGaussianBlur stdDeviation="9"/>
<feColorMatrix type="matrix" values="0 0 0 0 0.0658854 0 0 0 0 0.0730469 0 0 0 0 0.1375 0 0 0 0.08 0"/>
<feBlend mode="normal" in2="BackgroundImageFix" result="effect1_dropShadow_1_306"/>
<feBlend mode="normal" in="SourceGraphic" in2="effect1_dropShadow_1_306" result="shape"/>
</filter>
</defs>
</svg>
