<svg width="353" height="337" viewBox="0 0 353 337" fill="none" xmlns="http://www.w3.org/2000/svg">
<path d="M120.88 336.88C120.88 304.24 124.053 280.893 130.4 266.84C137.2 252.787 149.667 238.28 167.8 223.32C173.24 218.333 182.987 211.08 197.04 201.56C211.093 192.04 221.067 183.2 226.96 175.04C233.307 166.88 236.48 156.453 236.48 143.76C236.48 128.347 231.04 116.107 220.16 107.04C209.28 97.52 195.453 92.76 178.68 92.76C157.827 92.76 141.053 99.1066 128.36 111.8C116.12 124.04 110 141.04 110 162.8H0.52002C1.42669 113.84 18.2 74.6266 50.84 45.16C83.48 15.6933 127.68 0.959961 183.44 0.959961C234.213 0.959961 275.013 13.88 305.84 39.72C337.12 65.1067 352.76 98.4267 352.76 139.68C352.76 159.627 349.133 177.307 341.88 192.72C334.627 208.133 327.147 219.467 319.44 226.72C311.733 233.973 301.533 241.68 288.84 249.84C284.76 252.56 279.547 255.96 273.2 260.04C266.853 263.667 262.093 266.613 258.92 268.88C256.2 270.693 252.8 272.96 248.72 275.68C244.64 278.4 241.24 280.893 238.52 283.16C236.253 285.427 233.987 287.92 231.72 290.64C223.107 301.52 218.8 316.933 218.8 336.88H120.88Z" fill="white"/>
</svg>
