<svg width="71" height="70" viewBox="0 0 71 70" fill="none" xmlns="http://www.w3.org/2000/svg">
<g filter="url(#filter0_d_1_309)">
<circle cx="35.4002" cy="21.9796" r="16.7999" fill="#FFFF00"/>
</g>
<path d="M35.4001 5.17969C26.1216 5.17969 18.6001 12.7012 18.6001 21.9797C18.6001 31.2582 26.1216 38.7797 35.4001 38.7797C44.6786 38.7797 52.2001 31.2582 52.2001 21.9797C52.2001 12.7012 44.6786 5.17969 35.4001 5.17969ZM42.2339 18.9417C42.2409 19.0852 42.2426 19.2287 42.2426 19.3687C42.2426 23.7437 38.9159 28.7854 32.8294 28.7854C31.0309 28.7884 29.2698 28.2719 27.7578 27.2979C28.0151 27.3294 28.2793 27.3417 28.5471 27.3417C30.0976 27.3417 31.5239 26.8149 32.6561 25.9259C31.9661 25.9124 31.2975 25.6839 30.7435 25.2723C30.1896 24.8608 29.7778 24.2866 29.5656 23.6299C30.0611 23.7242 30.5716 23.7044 31.0583 23.5722C30.3094 23.4207 29.6359 23.0149 29.1521 22.4236C28.6682 21.8323 28.4038 21.0918 28.4036 20.3277V20.2874C28.8498 20.5342 29.3608 20.6847 29.9033 20.7022C29.2012 20.2348 28.7042 19.5169 28.5139 18.6952C28.3236 17.8735 28.4544 17.0101 28.8796 16.2817C29.7108 17.3037 30.7473 18.1397 31.9221 18.7357C33.0969 19.3317 34.3837 19.6743 35.6994 19.7414C35.5321 19.0315 35.6041 18.2861 35.9041 17.6213C36.2042 16.9565 36.7154 16.4094 37.3585 16.0652C38.0015 15.7209 38.7403 15.5987 39.4599 15.7176C40.1796 15.8365 40.8397 16.1899 41.3379 16.7227C42.0784 16.5762 42.7886 16.3045 43.4379 15.9194C43.191 16.6862 42.6743 17.3372 41.9836 17.7517C42.6396 17.6727 43.2801 17.4963 43.8841 17.2284C43.4405 17.8933 42.8816 18.4735 42.2339 18.9417Z" fill="#1A1A1A"/>
<defs>
<filter id="filter0_d_1_309" x="0.60022" y="0.179688" width="69.5999" height="69.5999" filterUnits="userSpaceOnUse" color-interpolation-filters="sRGB">
<feFlood flood-opacity="0" result="BackgroundImageFix"/>
<feColorMatrix in="SourceAlpha" type="matrix" values="0 0 0 0 0 0 0 0 0 0 0 0 0 0 0 0 0 0 127 0" result="hardAlpha"/>
<feOffset dy="13"/>
<feGaussianBlur stdDeviation="9"/>
<feColorMatrix type="matrix" values="0 0 0 0 0.0658854 0 0 0 0 0.0730469 0 0 0 0 0.1375 0 0 0 0.08 0"/>
<feBlend mode="normal" in2="BackgroundImageFix" result="effect1_dropShadow_1_309"/>
<feBlend mode="normal" in="SourceGraphic" in2="effect1_dropShadow_1_309" result="shape"/>
</filter>
</defs>
</svg>
